# xmcd CD database file
#
# Track frame offsets:
#	150
#	18853
#	33424
#	48654
#	64428
#	72332
#	89378
#	106075
#	120313
#	134951
#	145788
#	159002
#	173914
#	200585
#
# Disc length: 2794 seconds
#
# Revision: 0
# Processed by: cddbd v1.5.2PL0 Copyright (c) Steve Scherf et al.
# Submitted via: CDex 1.51
#
DISCID=c40ae80e
DTITLE=Kasey Chambers - Little Bird [CD1)
DYEAR=2010
DGENRE=Country
TTITLE0=Someone Like Me
TTITLE1=Beautiful Mess
TTITLE2=Devil On Your Back
TTITLE3=Little Bird
TTITLE4=Georgia Brown
TTITLE5=Somewhere
TTITLE6=This Story
TTITLE7=Love Like A Hurricane
TTITLE8=Down Here On Earth
TTITLE9=Nullarbor (The Biggest Backyard)
TTITLE10=Bring Back My Heart
TTITLE11=Invisible Girl
TTITLE12=Train Wreck
TTITLE13=The Stupid Things I Do
EXTD=YEAR: 2010
EXTT0=
EXTT1=
EXTT2=
EXTT3=
EXTT4=
EXTT5=
EXTT6=
EXTT7=
EXTT8=
EXTT9=
EXTT10=
EXTT11=
EXTT12=
EXTT13=
PLAYORDER=
